<?xml version="1.0" standalone="no"?>
<!DOCTYPE svg PUBLIC "-//W3C//DTD SVG 20010904//EN"
 "http://www.w3.org/TR/2001/REC-SVG-20010904/DTD/svg10.dtd">
<svg version="1.0" xmlns="http://www.w3.org/2000/svg"
 width="512.000000pt" height="512.000000pt" viewBox="0 0 512.000000 512.000000"
 preserveAspectRatio="xMidYMid meet">
<metadata>
Created by potrace 1.16, written by Peter Selinger 2001-2019
</metadata>
<g transform="translate(0.000000,512.000000) scale(0.100000,-0.100000)"
fill="#000000" stroke="none">
<path d="M2355 3954 c-342 -34 -644 -176 -886 -416 -301 -299 -447 -730 -395
-1163 9 -71 23 -155 31 -185 8 -30 11 -56 7 -58 -28 -9 -337 -209 -387 -249
-77 -63 -78 -82 -5 -107 66 -23 256 -24 360 -2 65 13 65 13 -65 9 -112 -4
-135 -2 -165 14 -25 13 -36 26 -38 46 -4 34 59 99 193 197 106 78 115 84 115
73 0 -5 -29 -31 -65 -57 -36 -26 -70 -56 -75 -67 -16 -29 3 -23 36 12 38 40
50 45 379 154 387 129 614 222 820 337 94 53 280 151 415 218 354 177 736 390
755 420 9 15 35 12 35 -4 0 -17 -52 -64 -142 -130 -37 -27 -66 -52 -63 -54 6
-6 216 96 304 147 39 23 71 48 71 55 0 7 -27 52 -60 100 -165 242 -329 390
-544 492 -88 41 -226 84 -272 84 -27 0 -40 -16 -26 -33 6 -7 12 -21 14 -32 1
-11 14 -30 28 -43 14 -14 18 -20 10 -14 -13 9 -14 3 -11 -36 2 -26 7 -51 11
-57 7 -9 10 -42 11 -135 1 -68 0 -72 -20 -65 -12 4 -21 0 -25 -11 -9 -24 1
-30 24 -16 17 10 20 9 21 -5 2 -54 -4 -128 -15 -177 -8 -31 -10 -59 -5 -62 5
-3 23 18 41 45 17 28 33 49 35 47 11 -11 -71 -131 -141 -205 -23 -24 -35 -40
-27 -36 20 12 5 -31 -31 -85 -26 -39 -41 -50 -105 -75 -41 -17 -82 -38 -90
-48 -12 -12 12 -6 78 22 52 21 95 38 96 37 7 -7 -40 -87 -76 -130 -58 -69 -95
-92 -286 -183 -261 -124 -368 -166 -615 -239 -142 -41 -194 -50 -187 -30 3 8
2 17 -3 22 -4 5 -10 25 -14 44 l-6 36 485 194 c267 106 491 200 498 209 10 12
9 14 -3 9 -8 -3 -224 -90 -480 -193 -256 -103 -474 -190 -486 -192 -19 -4 -21
1 -27 73 -27 315 53 611 230 849 86 116 178 196 308 270 47 27 49 28 30 5
l-20 -23 27 18 c15 9 25 22 21 28 -3 5 -1 7 4 4 6 -4 44 9 84 29 87 41 49 36
-66 -9 -162 -64 -331 -203 -434 -356 -100 -147 -175 -348 -202 -540 -15 -105
-6 -351 16 -440 8 -36 12 -68 7 -73 -4 -4 -21 -10 -38 -14 l-31 -6 -19 104
c-23 124 -25 356 -5 468 28 159 89 313 176 445 40 62 42 65 11 30 -79 -90
-146 -234 -193 -415 -37 -139 -42 -341 -14 -510 11 -69 16 -129 12 -133 -5 -5
-27 -11 -50 -14 -22 -3 -46 -12 -52 -19 -24 -29 -36 -13 -58 79 -74 320 -37
631 109 916 192 372 605 673 1024 746 114 19 318 19 432 0 305 -54 596 -227
835 -498 98 -112 155 -198 70 -107 l-51 55 36 -55 c36 -55 104 -186 104 -201
0 -28 -247 -163 -364 -200 -107 -33 -660 -249 -705 -275 -14 -8 -19 -13 -11
-11 9 3 42 10 75 17 59 12 395 134 509 184 33 14 61 25 63 23 4 -5 -266 -135
-412 -197 -469 -201 -1503 -576 -1755 -635 -80 -19 -111 -35 -70 -35 23 -1 23
-2 -6 -14 -18 -8 -64 -22 -103 -31 -48 -12 -71 -22 -71 -33 0 -20 75 -10 236
33 l125 33 39 -85 c192 -414 598 -732 1047 -819 121 -24 367 -24 487 0 318 62
607 229 818 471 157 181 272 410 313 627 19 104 31 330 16 308 -6 -8 -11 -34
-11 -57 0 -62 -37 -244 -67 -326 -115 -325 -376 -581 -728 -716 -44 -17 -81
-31 -84 -31 -2 0 36 25 85 56 116 73 223 154 299 229 189 186 339 482 370 730
3 28 8 60 11 73 3 15 44 48 137 108 191 124 286 194 293 216 3 10 0 26 -7 34
-7 9 -8 18 -3 23 251 212 320 293 339 393 14 76 -54 149 -175 186 -79 24 -306
24 -415 -2 -101 -23 -268 -76 -262 -82 3 -3 58 7 124 22 156 36 380 45 467 20
32 -10 69 -28 83 -42 22 -22 25 -32 20 -67 -3 -23 -12 -46 -20 -52 -8 -5 -17
-20 -21 -32 -12 -37 -131 -139 -272 -233 -84 -55 -225 -133 -368 -204 -330
-163 -721 -335 -733 -322 -7 6 85 54 487 254 370 184 567 294 620 349 l25 25
-45 -28 c-25 -15 -67 -40 -95 -56 l-50 -29 52 48 c96 88 116 152 65 203 -37
36 -93 52 -212 59 l-95 6 120 13 c66 8 125 15 130 18 22 9 -174 -7 -232 -19
l-62 -13 -67 105 c-124 194 -346 391 -564 501 -103 52 -265 107 -364 125 -87
15 -276 25 -341 19z m565 -385 c42 -82 33 -191 -22 -260 -11 -15 -8 -3 9 31
36 72 38 164 5 228 -12 23 -20 42 -17 42 2 0 14 -18 25 -41z m394 -182 c12
-19 3 -32 -19 -24 -17 7 -21 51 -3 45 6 -2 16 -12 22 -21z m489 -221 c99 -8
164 -34 173 -71 12 -48 -13 -102 -81 -173 -34 -37 -76 -75 -92 -84 l-30 -17
-16 52 c-9 29 -28 80 -41 112 l-24 59 24 19 c30 23 30 51 3 97 -12 19 -15 30
-8 24 8 -6 49 -14 92 -18z m250 -425 c-88 -84 -153 -127 -164 -110 -21 33 -7
47 104 107 61 33 114 60 117 61 3 0 -23 -26 -57 -58z m-187 -136 c-4 -11 -159
-105 -174 -105 -3 0 14 14 36 30 32 23 42 37 42 58 0 24 8 33 48 55 l47 26 3
-25 c2 -14 1 -32 -2 -39z m-200 36 c-3 -4 -59 -43 -124 -85 -84 -55 -124 -88
-137 -112 -20 -38 -51 -55 -335 -181 -163 -73 -190 -84 -190 -79 0 2 27 26 59
52 33 27 58 50 57 52 -5 4 -256 -95 -431 -171 -278 -120 -244 -88 96 90 227
118 279 140 411 173 127 31 451 175 563 249 35 23 38 24 31 12z m-511 -61 c-3
-5 -12 -10 -18 -10 -7 0 -6 4 3 10 19 12 23 12 15 0z m-35 -15 c0 -6 -85 -49
-226 -115 -57 -27 -104 -46 -104 -44 0 4 313 160 328 163 1 1 2 -1 2 -4z
m-640 -203 c-30 -15 -57 -30 -58 -35 -2 -4 -8 -5 -13 -1 -5 3 -9 0 -9 -6 0 -6
-5 -8 -12 -4 -8 5 13 20 57 40 84 39 113 44 35 6z m1203 -56 c19 6 19 4 -5
-17 -18 -17 -31 -46 -43 -94 -62 -258 -301 -559 -557 -699 -65 -36 -208 -98
-208 -91 0 3 42 24 93 48 125 59 233 133 335 231 105 101 169 185 231 306 44
84 101 231 101 258 0 5 -62 -18 -137 -53 -148 -67 -274 -115 -301 -115 -20 0
41 29 223 107 212 90 223 97 232 140 l8 38 3 -33 c3 -29 6 -32 25 -26z m-1317
-9 c-10 -7 -34 -29 -54 -49 -19 -20 -37 -37 -41 -36 -12 2 -61 -22 -61 -30 0
-5 -12 -15 -27 -22 -16 -8 -39 -22 -53 -31 -14 -9 -29 -18 -35 -19 -5 -1 -21
-7 -35 -12 -14 -5 -33 -11 -42 -13 -9 -2 -25 -8 -36 -14 -10 -5 -56 -13 -101
-16 -45 -3 -90 -8 -101 -10 -11 -2 -20 0 -20 5 0 4 -10 6 -22 3 -13 -2 112 50
277 117 165 66 308 121 318 122 9 1 17 6 17 10 0 4 8 8 18 7 16 0 15 -1 -2
-12z m934 -12 c0 -2 -22 -16 -50 -30 -27 -14 -50 -23 -50 -20 0 2 21 16 48 29
53 28 52 28 52 21z m-1035 -152 c-135 -70 -647 -277 -668 -270 -6 2 41 24 104
50 63 26 222 92 354 147 242 100 301 120 210 73z m490 -29 c-16 -14 -64 -41
-105 -60 -118 -56 -361 -156 -366 -151 -9 8 62 45 268 138 112 50 207 95 212
100 5 5 12 6 15 3 3 -3 -7 -17 -24 -30z m-1250 -131 c58 -156 198 -386 298
-490 82 -85 145 -133 257 -192 52 -28 91 -51 87 -51 -25 0 -205 104 -290 168
-225 170 -320 293 -411 536 -22 59 -23 65 -8 69 42 11 50 6 67 -40z m1850 -4
c-134 -65 -332 -153 -320 -140 13 12 396 190 410 190 6 0 -35 -23 -90 -50z
m-1985 -115 c25 -60 61 -136 79 -167 18 -32 31 -61 28 -64 -8 -8 -95 114 -128
180 -66 129 -75 173 -35 163 5 -1 30 -51 56 -112z m657 100 c3 -8 -2 -23 -11
-32 -15 -15 -17 -15 -32 0 -21 21 -11 48 16 48 11 0 23 -7 27 -16z m1133 -279
c0 -2 -10 -9 -22 -15 -22 -11 -22 -10 -4 4 21 17 26 19 26 11z m-1082 -43 c4
-26 -22 -40 -43 -22 -11 9 -12 17 -4 32 13 25 43 19 47 -10z m1032 12 c0 -3
-55 -31 -122 -64 -173 -82 -366 -131 -503 -129 l-50 1 55 9 c234 38 392 83
540 152 88 42 80 38 80 31z m-927 -299 c226 -59 449 -56 638 9 24 9 47 12 52
7 16 -16 -44 -50 -116 -66 -161 -37 -373 -29 -547 22 -80 23 -250 96 -250 107
0 2 30 -9 66 -25 36 -16 107 -41 157 -54z"/>
<path d="M1776 3650 c-86 -56 -230 -190 -286 -265 -45 -61 -62 -93 -25 -45 58
73 234 239 313 294 73 52 90 66 78 66 -2 0 -38 -22 -80 -50z"/>
<path d="M1899 3533 l-24 -28 28 24 c25 23 32 31 24 31 -2 0 -14 -12 -28 -27z"/>
<path d="M3659 3534 c-17 -21 0 -49 31 -49 31 0 48 28 31 49 -8 9 -21 16 -31
16 -10 0 -23 -7 -31 -16z"/>
<path d="M1960 3378 c39 -64 19 -168 -42 -225 -13 -12 -45 -32 -72 -44 -60
-26 -138 -22 -192 10 -19 12 -32 16 -29 11 17 -27 92 -54 150 -54 119 0 225
95 225 201 0 40 -30 115 -49 128 -7 3 -3 -8 9 -27z"/>
<path d="M3901 3304 c-47 -8 -87 -17 -90 -21 -3 -3 8 -3 24 1 17 4 93 9 170
13 130 5 145 4 212 -19 78 -26 86 -20 20 14 -54 28 -212 34 -336 12z"/>
<path d="M3778 3273 c7 -3 16 -2 19 1 4 3 -2 6 -13 5 -11 0 -14 -3 -6 -6z"/>
<path d="M4310 3236 c0 -2 8 -10 18 -17 15 -13 16 -12 3 4 -13 16 -21 21 -21
13z"/>
<path d="M4346 3187 c3 -10 9 -15 12 -12 3 3 0 11 -7 18 -10 9 -11 8 -5 -6z"/>
<path d="M2709 3103 c-13 -16 -12 -17 4 -4 9 7 17 15 17 17 0 8 -8 3 -21 -13z"/>
<path d="M2664 3048 l-19 -23 23 19 c12 11 22 21 22 23 0 8 -8 2 -26 -19z"/>
<path d="M2057 2792 c-21 -23 -22 -38 -2 -46 34 -13 53 11 39 48 -8 21 -17 20
-37 -2z"/>
<path d="M2382 2548 c-128 -61 -230 -113 -228 -115 9 -9 476 209 476 222 0 10
-20 2 -248 -107z"/>
<path d="M900 2345 c-10 -12 -10 -18 0 -30 16 -19 39 -19 46 0 6 15 -11 45
-26 45 -4 0 -13 -7 -20 -15z"/>
<path d="M3777 1679 c-29 -41 11 -75 47 -39 16 16 18 24 10 38 -16 25 -40 26
-57 1z"/>
<path d="M1197 1616 c-6 -15 11 -36 29 -36 14 0 27 28 18 41 -8 14 -41 11 -47
-5z"/>
<path d="M1224 1486 c-10 -26 4 -48 28 -44 17 2 23 10 23 28 0 18 -6 26 -23
28 -13 2 -25 -3 -28 -12z"/>
</g>
</svg>